<?xml version="1.0" encoding="UTF-8"?><svg id="Layer_2" xmlns="http://www.w3.org/2000/svg" viewBox="0 0 340.67 38.1"><defs><style>.cls-1{fill:#1b1b1b;}</style></defs><g id="Layer_1-2"><path class="cls-1" d="M34.27,2.99l.18-.18-2.83-2.82-14.23,14.28V3.67h-3.99v8.76c0,.37-.24.6-.46.69-.22.09-.56.1-.82-.16l-6.15-6.15-2.82,2.82,6.15,6.15c.26.26.26.59.16.82s-.32.46-.69.46H0v3.99h8.83c.37,0,.6.24.69.46s.1.56-.16.82l-6.22,6.24,2.83,2.82,6.15-6.17c.26-.26.59-.26.82-.16.22.09.46.32.46.69v8.69h3.99v-10.57l14.24,14.24,2.82-2.82-14.24-14.24h20.18v-3.99h-20.13s14.02-14.06,14.02-14.06Z"/><path class="cls-1" d="M64.42,11.94c1.37,0,2.47.32,3.29.95.84.62,1.39,1.47,1.65,2.57h4.14c-.39-2.18-1.38-3.87-2.97-5.06-1.57-1.21-3.58-1.82-6.05-1.82-2.08,0-3.86.44-5.35,1.33-1.49.89-2.63,2.12-3.44,3.7-.8,1.58-1.2,3.4-1.2,5.47s.4,3.88,1.2,5.47c.8,1.56,1.95,2.79,3.44,3.67,1.49.87,3.27,1.3,5.35,1.3,2.47,0,4.49-.59,6.05-1.76,1.59-1.18,2.58-2.81,2.97-4.89h-4.14c-.25,1.04-.8,1.86-1.65,2.46-.82.58-1.92.87-3.29.87-1.9,0-3.39-.63-4.47-1.88-1.08-1.27-1.62-3.02-1.62-5.23s.54-3.96,1.62-5.23c1.08-1.27,2.57-1.91,4.47-1.91Z"/><path class="cls-1" d="M79.78,15.97v-3.06s-4.12,0-4.12,0v16.22h4.18v-7.38c0-1.24.2-2.21.59-2.91.41-.7.98-1.19,1.7-1.47.72-.28,1.54-.42,2.45-.42h1.18v-4.41c-1.37,0-2.57.32-3.59.95-1,.61-1.8,1.44-2.38,2.48Z"/><path class="cls-1" d="M99.41,13.58c-1.22-.7-2.62-1.05-4.21-1.05-1.7,0-3.18.37-4.44,1.11-1.24.72-2.22,1.73-2.94,3.04-.7,1.31-1.05,2.8-1.05,4.47s.36,3.11,1.08,4.38c.72,1.26,1.71,2.24,2.97,2.94,1.26.7,2.71,1.05,4.34,1.05,1.31,0,2.47-.24,3.49-.72,1.05-.48,1.92-1.13,2.61-1.96.72-.85,1.23-1.79,1.54-2.81h-4.25c-.28.61-.72,1.11-1.31,1.5-.57.37-1.27.56-2.12.56-1.13,0-2.1-.36-2.91-1.08-.78-.72-1.22-1.71-1.31-2.97h12.31c.02-.28.03-.56.03-.82.02-.26.03-.51.03-.75,0-1.48-.35-2.82-1.05-4.02-.67-1.22-1.62-2.18-2.84-2.87ZM90.99,19.43c.22-1.18.72-2.05,1.5-2.61.78-.59,1.69-.88,2.71-.88s1.96.32,2.68.95c.72.63,1.11,1.48,1.18,2.55h-8.07Z"/><path class="cls-1" d="M118.65,14.27c-1.33-1.15-3.15-1.73-5.45-1.73-1.35,0-2.57.24-3.66.72-1.09.46-1.98,1.12-2.68,1.99-.67.87-1.07,1.89-1.18,3.07h4.08c.15-.78.54-1.37,1.18-1.76.63-.41,1.37-.62,2.22-.62.94,0,1.72.26,2.35.78.63.52.95,1.34.95,2.45v.39h-4.12c-2.35,0-4.12.47-5.29,1.4-1.18.94-1.76,2.16-1.76,3.66,0,.89.22,1.71.65,2.45.44.74,1.1,1.34,1.99,1.8.89.44,2.04.65,3.43.65s2.45-.28,3.3-.85c.87-.57,1.55-1.28,2.03-2.16v2.61h3.95v-9.96c0-2.11-.66-3.75-1.99-4.9ZM115.09,25.08c-.65.78-1.58,1.18-2.78,1.18-.78,0-1.42-.17-1.89-.52-.48-.35-.72-.84-.72-1.47,0-.59.24-1.08.72-1.47.48-.41,1.27-.62,2.38-.62h3.56c-.17,1.15-.6,2.12-1.27,2.91Z"/><path class="cls-1" d="M129.15,8.58h-4.18v4.34h-2.78v3.5h2.78v7.06c0,2.11.51,3.58,1.54,4.41,1.02.83,2.38,1.24,4.08,1.24h2.84v-3.56h-2.03c-.83,0-1.42-.14-1.76-.42-.33-.3-.49-.85-.49-1.63v-7.09h4.38v-3.5h-4.38v-4.34Z"/><rect class="cls-1" x="136.25" y="12.93" width="4.18" height="16.2"/><polygon class="cls-1" points="154.79 12.93 150.68 25.18 146.56 12.93 142.19 12.93 148.13 29.13 153.19 29.13 159.17 12.93 154.79 12.93"/><path class="cls-1" d="M171.69,13.58c-1.22-.7-2.62-1.05-4.21-1.05-1.7,0-3.18.37-4.44,1.11-1.24.72-2.22,1.73-2.94,3.04-.7,1.31-1.05,2.8-1.05,4.47s.36,3.11,1.08,4.38c.72,1.26,1.71,2.24,2.97,2.94,1.26.7,2.71,1.05,4.34,1.05,1.31,0,2.47-.24,3.5-.72,1.05-.48,1.92-1.13,2.61-1.96.72-.85,1.23-1.79,1.54-2.81h-4.25c-.28.61-.72,1.11-1.31,1.5-.57.37-1.27.56-2.12.56-1.13,0-2.1-.36-2.91-1.08-.78-.72-1.22-1.71-1.31-2.97h12.31c.02-.28.03-.56.03-.82.02-.26.03-.51.03-.75,0-1.48-.35-2.82-1.05-4.02-.67-1.22-1.62-2.18-2.84-2.87ZM163.27,19.43c.22-1.18.72-2.05,1.5-2.61.78-.59,1.69-.88,2.71-.88s1.96.32,2.68.95c.72.63,1.11,1.48,1.18,2.55h-8.07Z"/><path class="cls-1" d="M194.41,9.87c-1.53-.86-3.5-1.29-5.89-1.29h-6.96v20.55h6.96c2.39,0,4.35-.42,5.89-1.26,1.55-.86,2.7-2.05,3.44-3.58.76-1.55,1.14-3.36,1.14-5.43s-.38-3.87-1.14-5.4c-.74-1.55-1.88-2.74-3.44-3.58ZM194.22,22.52c-.39.99-1.04,1.76-1.95,2.3-.91.52-2.15.79-3.72.79h-2.81v-13.5h2.81c1.57,0,2.81.27,3.72.81s1.56,1.32,1.95,2.33c.39,1.01.59,2.22.59,3.62s-.2,2.64-.59,3.65Z"/><path class="cls-1" d="M212.93,13.61c-1.24-.72-2.63-1.08-4.18-1.08s-2.98.36-4.25,1.08c-1.24.72-2.23,1.72-2.97,3.01-.74,1.26-1.11,2.73-1.11,4.41s.36,3.16,1.08,4.44c.74,1.26,1.73,2.25,2.97,2.97,1.26.72,2.68,1.08,4.25,1.08s2.95-.36,4.21-1.08c1.26-.72,2.25-1.71,2.97-2.97.74-1.28,1.11-2.77,1.11-4.44s-.37-3.15-1.11-4.41c-.72-1.28-1.71-2.29-2.97-3.01ZM211.56,24.69c-.81.81-1.75,1.21-2.84,1.21s-2.04-.4-2.84-1.21c-.78-.83-1.18-2.05-1.18-3.66s.39-2.82,1.18-3.63c.81-.83,1.76-1.24,2.87-1.24s2,.41,2.81,1.24c.81.81,1.21,2.01,1.21,3.63s-.4,2.83-1.21,3.66Z"/><path class="cls-1" d="M226.83,16.1c.87,0,1.62.23,2.25.69.65.44,1.09,1.05,1.31,1.83h4.41c-.39-1.89-1.3-3.38-2.71-4.44-1.42-1.09-3.16-1.63-5.23-1.63-1.66,0-3.11.36-4.38,1.08-1.26.72-2.27,1.72-3.01,3.01-.72,1.28-1.08,2.75-1.08,4.41s.36,3.12,1.08,4.41c.74,1.28,1.74,2.29,3.01,3.01,1.26.72,2.72,1.08,4.38,1.08,2.07,0,3.81-.56,5.23-1.67,1.41-1.11,2.32-2.58,2.71-4.41h-4.41c-.22.81-.65,1.43-1.31,1.86-.63.44-1.38.65-2.25.65-1.15,0-2.13-.44-2.94-1.31-.81-.87-1.21-2.08-1.21-3.63s.4-2.75,1.21-3.63c.81-.87,1.79-1.31,2.94-1.31Z"/><polygon class="cls-1" points="251.17 12.93 246.21 12.93 240.46 19.49 240.46 8.67 236.28 8.67 236.28 29.13 240.46 29.13 240.46 21 247.02 29.13 252.25 29.13 244.54 20.31 251.17 12.93"/><path class="cls-1" d="M138.34,6.91c-.68,0-1.24.2-1.68.61-.43.39-.64.89-.64,1.51s.21,1.13.64,1.54c.45.41,1.01.61,1.68.61s1.23-.2,1.65-.61c.45-.41.67-.92.67-1.54s-.22-1.12-.67-1.51c-.43-.41-.98-.61-1.65-.61Z"/><path class="cls-1" d="M281.43,15.94v-3.06s-4.12,0-4.12,0v16.22h4.18v-7.38c0-1.24.2-2.21.59-2.91.41-.7.98-1.19,1.7-1.47.72-.28,1.54-.42,2.45-.42h1.18v-4.41c-1.37,0-2.57.32-3.59.95-1,.61-1.8,1.44-2.38,2.48Z"/><path class="cls-1" d="M300.93,13.59c-1.24-.72-2.63-1.08-4.18-1.08s-2.98.36-4.25,1.08c-1.24.72-2.23,1.72-2.97,3.01-.74,1.26-1.11,2.73-1.11,4.41s.36,3.16,1.08,4.44c.74,1.26,1.73,2.25,2.97,2.97,1.26.72,2.68,1.08,4.25,1.08s2.95-.36,4.21-1.08c1.26-.72,2.25-1.71,2.97-2.97.74-1.28,1.11-2.77,1.11-4.44s-.37-3.15-1.11-4.41c-.72-1.28-1.71-2.29-2.97-3.01ZM299.56,24.66c-.81.81-1.75,1.21-2.84,1.21s-2.04-.4-2.84-1.21c-.78-.83-1.18-2.05-1.18-3.66s.39-2.82,1.18-3.63c.81-.83,1.76-1.24,2.87-1.24s2,.41,2.81,1.24c.81.81,1.21,2.01,1.21,3.63s-.4,2.83-1.21,3.66Z"/><path class="cls-1" d="M317.83,22.21c0,.55-.08,1.05-.23,1.51-.15.46-.38.85-.68,1.17-.3.33-.65.58-1.07.75-.41.18-.88.27-1.39.27-1.02,0-1.79-.3-2.31-.9-.51-.6-.77-1.45-.77-2.54v-9.64h-4.22v10.51c0,1.26.22,2.34.66,3.26s1.08,1.61,1.92,2.1c.84.49,1.85.73,3.04.73.82,0,1.55-.12,2.19-.37.64-.24,1.19-.59,1.65-1.03s.83-.97,1.12-1.58h.08v2.63h4.22V12.83h-4.22v9.38Z"/><path class="cls-1" d="M339.86,16.43c-.54-1.26-1.31-2.23-2.31-2.91-1-.67-2.19-1.01-3.56-1.01-.77,0-1.48.13-2.12.38-.64.25-1.21.61-1.69,1.08-.48.47-.88,1.03-1.18,1.69h-.09v-2.83h-4.22v21.59h4.22v-8.08h.08c.3.64.7,1.19,1.2,1.65.49.46,1.07.82,1.73,1.07.66.25,1.38.37,2.15.37,1.36,0,2.53-.34,3.52-1.02s1.75-1.65,2.28-2.92.81-2.77.81-4.51v-.02c0-1.76-.27-3.27-.81-4.53ZM336.39,20.98c0,1-.15,1.88-.46,2.62-.3.74-.74,1.31-1.29,1.71-.56.4-1.22.6-1.98.6s-1.41-.2-1.96-.6c-.56-.4-1-.97-1.32-1.71-.33-.74-.49-1.61-.49-2.62v-.02c0-1.01.16-1.89.48-2.63.32-.74.76-1.31,1.33-1.71.57-.4,1.22-.6,1.96-.6s1.42.2,1.98.59c.56.4.99.96,1.29,1.7.3.74.46,1.62.46,2.66v.02Z"/><path class="cls-1" d="M266.39,21.43h4.75l.03.39c-.03.87-.26,1.63-.7,2.29-.44.65-1.04,1.16-1.79,1.52-.75.36-1.62.54-2.61.54-.9,0-1.71-.16-2.42-.48-.72-.32-1.54-.89-2.06-1.51-.51-.62-.9-1.37-1.17-2.25-.27-.88-.41-1.89-.41-3.01h0c0-1.47.23-2.72.69-3.75.46-1.03,1.31-1.89,2.17-2.43.85-.55,2.2-.82,3.38-.82s2.24.28,3.08.85c.84.57,1.24,1.42,1.61,2.44l.04.15h4.18s-.04-.21-.04-.21c-.24-1.26-.76-2.39-1.56-3.38-.8-.99-1.84-1.77-3.11-2.35-1.27-.58-2.73-.86-4.39-.86-2.03,0-3.78.42-5.27,1.26s-2.63,2.03-3.44,3.58c-.81,1.55-1.21,3.4-1.21,5.56h0c0,1.65.23,3.12.69,4.42.46,1.3,1.12,2.41,1.99,3.32.87.91,1.92,1.6,3.15,2.08,1.23.48,2.62.72,4.16.72,1.45,0,2.74-.2,3.88-.6,1.14-.4,2.1-.98,2.9-1.75.79-.76,1.4-1.69,1.82-2.78.42-1.09.63-2.32.63-3.69v-2.29h-8.96v3.04Z"/></g></svg>