<?xml version="1.0" encoding="UTF-8"?><svg id="Layer_2" xmlns="http://www.w3.org/2000/svg" viewBox="0 0 1200 181"><defs><style>.cls-1{fill:#1b1b1b;}</style></defs><g id="Layer_1-2"><path class="cls-1" d="M96.18,81.03h95.64s0,18.95,0,18.95H95.97l67.63,67.63-13.4,13.4L82.57,113.38v50.22h-18.95v-41.29c0-1.76-1.14-2.86-2.2-3.29-1.06-.44-2.64-.47-3.88,.78l-29.19,29.29-13.42-13.38,29.55-29.65c1.24-1.24,1.21-2.82,.77-3.88-.44-1.06-1.54-2.2-3.29-2.2H0v-18.95H41.62c1.75,0,2.85-1.14,3.29-2.2,.44-1.06,.47-2.64-.77-3.88L14.93,45.74l13.4-13.4,29.21,29.21c1.24,1.24,2.82,1.21,3.88,.77,1.06-.44,2.2-1.54,2.2-3.29V17.41h18.95v50.42L150.19,0l13.42,13.38L96.18,81.03Zm209.84-24.32c6.51,0,11.72,1.51,15.63,4.53,4,2.93,6.61,7.01,7.82,12.23h19.68c-1.86-10.35-6.56-18.36-14.09-24.04-7.44-5.77-17.03-8.65-28.75-8.65-9.86,0-18.33,2.11-25.4,6.32-7.07,4.21-12.51,10.07-16.33,17.58-3.81,7.51-5.72,16.16-5.72,25.96s1.91,18.45,5.72,25.96c3.81,7.42,9.26,13.23,16.33,17.45,7.07,4.12,15.54,6.18,25.4,6.18,11.72,0,21.31-2.79,28.75-8.38,7.54-5.59,12.23-13.32,14.09-23.22h-19.68c-1.21,4.95-3.81,8.84-7.82,11.68-3.91,2.75-9.12,4.12-15.63,4.12-9.02,0-16.1-2.98-21.21-8.93-5.12-6.04-7.68-14.33-7.68-24.86s2.56-18.82,7.68-24.86c5.12-6.04,12.19-9.07,21.21-9.07Zm72.97,19.13l.05-14.53h-19.6v77.06h19.86v-35.07c0-5.9,.93-10.5,2.79-13.81,1.97-3.31,4.65-5.64,8.07-6.98,3.41-1.34,7.29-2.02,11.64-2.02h5.59v-20.95c-6.52,0-12.21,1.5-17.07,4.5-4.76,2.9-8.53,6.83-11.33,11.79Zm106.74,2.33c3.31,5.69,4.97,12.05,4.97,19.08,0,1.14-.05,2.33-.15,3.57,0,1.24-.05,2.53-.16,3.88h-58.49c.41,6,2.48,10.71,6.21,14.12,3.83,3.41,8.43,5.12,13.81,5.12,4.03,0,7.4-.88,10.09-2.64,2.79-1.86,4.86-4.24,6.21-7.14h20.17c-1.45,4.86-3.88,9.31-7.29,13.34-3.31,3.93-7.45,7.03-12.41,9.31-4.86,2.28-10.4,3.41-16.6,3.41-7.76,0-14.64-1.66-20.64-4.97-6-3.31-10.71-7.96-14.12-13.96-3.41-6-5.12-12.93-5.12-20.79s1.65-15.05,4.97-21.26c3.41-6.21,8.07-11.02,13.96-14.43,6-3.52,13.03-5.28,21.1-5.28,7.55,0,14.22,1.65,20.02,4.96,5.79,3.31,10.29,7.86,13.5,13.65Zm-15.21,14.12c-.31-5.07-2.17-9.1-5.59-12.1-3.41-3-7.65-4.5-12.72-4.5s-9.15,1.4-12.88,4.19c-3.72,2.69-6.1,6.83-7.14,12.41h38.32Zm102.54-1.24v47.32h-18.77v-12.41c-2.27,4.14-5.48,7.55-9.62,10.24-4.03,2.69-9.26,4.03-15.67,4.03s-12.05-1.03-16.29-3.1c-4.24-2.17-7.39-5.02-9.46-8.53-2.07-3.52-3.1-7.4-3.1-11.64,0-7.14,2.79-12.93,8.38-17.38,5.59-4.45,13.96-6.67,25.14-6.67h19.55v-1.86c0-5.28-1.5-9.15-4.5-11.64-3-2.48-6.72-3.72-11.17-3.72-4.03,0-7.55,.98-10.55,2.95-3,1.86-4.86,4.66-5.59,8.38h-19.4c.52-5.59,2.38-10.45,5.59-14.59,3.31-4.14,7.55-7.29,12.72-9.46,5.17-2.28,10.96-3.41,17.38-3.41,10.96,0,19.6,2.74,25.91,8.22,6.31,5.48,9.46,13.24,9.46,23.27Zm-20.33,14.27h-16.91c-5.28,0-9.05,.98-11.33,2.95-2.27,1.86-3.41,4.19-3.41,6.98,0,3,1.14,5.33,3.41,6.98,2.27,1.65,5.28,2.48,9,2.48,5.69,0,10.09-1.86,13.19-5.59,3.2-3.72,5.22-8.33,6.05-13.81Zm60.75-64.55h-19.86v20.64h-13.19v16.6h13.19v33.51c0,10.03,2.43,17.02,7.29,20.95,4.86,3.93,11.33,5.9,19.39,5.9h13.5v-16.91h-9.62c-3.93,0-6.72-.67-8.38-2.02-1.55-1.45-2.33-4.03-2.33-7.76v-33.67h20.79v-16.6h-20.79v-20.64Zm33.69,97.59h19.86V61.41h-19.86v76.96Zm88.11-76.96l-19.55,58.18-19.55-58.18h-20.79l28.24,76.96h24.05l28.39-76.96h-20.79Zm93.78,16.76c3.31,5.69,4.97,12.05,4.97,19.08,0,1.14-.05,2.33-.16,3.57,0,1.24-.05,2.53-.16,3.88h-58.49c.42,6,2.48,10.71,6.21,14.12,3.83,3.41,8.43,5.12,13.81,5.12,4.03,0,7.4-.88,10.09-2.64,2.79-1.86,4.86-4.24,6.21-7.14h20.17c-1.45,4.86-3.88,9.31-7.29,13.34-3.31,3.93-7.45,7.03-12.41,9.31-4.86,2.28-10.4,3.41-16.6,3.41-7.76,0-14.63-1.66-20.64-4.97-6-3.31-10.71-7.96-14.12-13.96-3.41-6-5.12-12.93-5.12-20.79s1.66-15.05,4.97-21.26c3.41-6.21,8.07-11.02,13.96-14.43,6-3.52,13.03-5.28,21.1-5.28,7.55,0,14.23,1.65,20.02,4.96,5.79,3.31,10.29,7.86,13.5,13.65Zm-15.21,14.12c-.31-5.07-2.17-9.1-5.59-12.1-3.41-3-7.65-4.5-12.72-4.5s-9.15,1.4-12.88,4.19c-3.72,2.69-6.1,6.83-7.14,12.41h38.32Zm125.96-28.37c3.6,7.25,5.4,15.8,5.4,25.65s-1.8,18.45-5.4,25.79c-3.5,7.25-8.95,12.92-16.33,17.01-7.29,4-16.61,5.99-27.96,5.99h-33.08V40.77h33.08c11.35,0,20.67,2.04,27.96,6.13,7.38,4,12.83,9.67,16.33,17.01Zm-14.46,25.72c0-6.67-.93-12.4-2.79-17.2-1.86-4.8-4.95-8.49-9.27-11.07-4.32-2.58-10.2-3.87-17.65-3.87h-13.33V121.64h13.33c7.45,0,13.33-1.24,17.65-3.73,4.32-2.58,7.41-6.22,9.27-10.93,1.87-4.8,2.79-10.58,2.79-17.33Zm101.3-10.69c3.52,6,5.27,12.98,5.27,20.95s-1.76,15-5.27,21.1c-3.41,6-8.12,10.71-14.12,14.12-6,3.41-12.67,5.12-20.02,5.12s-14.17-1.71-20.17-5.12c-5.9-3.41-10.6-8.12-14.12-14.12-3.41-6.1-5.12-13.14-5.12-21.1s1.76-14.95,5.28-20.95c3.52-6.1,8.22-10.86,14.12-14.27,6-3.41,12.72-5.12,20.17-5.12s13.96,1.71,19.86,5.12c6,3.41,10.71,8.17,14.12,14.27Zm-14.9,20.95c0-7.65-1.91-13.4-5.74-17.22-3.83-3.93-8.27-5.9-13.34-5.9s-9.82,1.97-13.65,5.9c-3.72,3.83-5.59,9.57-5.59,17.22s1.86,13.45,5.59,17.38c3.83,3.83,8.33,5.74,13.5,5.74s9.67-1.91,13.5-5.74c3.83-3.93,5.74-9.72,5.74-17.38Zm66.88-23.43c4.14,0,7.7,1.09,10.71,3.26,3.1,2.07,5.17,4.97,6.21,8.69h20.95c-1.86-9-6.16-16.03-12.88-21.1-6.73-5.17-15-7.76-24.83-7.76-7.86,0-14.79,1.71-20.79,5.12-6,3.41-10.76,8.17-14.27,14.27-3.41,6.1-5.12,13.08-5.12,20.95s1.71,14.84,5.12,20.95c3.52,6.1,8.27,10.86,14.27,14.27,6,3.41,12.93,5.12,20.79,5.12,9.82,0,18.1-2.64,24.83-7.91,6.72-5.28,11.02-12.26,12.88-20.95h-20.95c-1.04,3.83-3.1,6.78-6.21,8.84-3,2.07-6.57,3.1-10.71,3.1-5.48,0-10.14-2.07-13.96-6.21-3.83-4.14-5.74-9.88-5.74-17.22s1.91-13.09,5.74-17.22c3.83-4.14,8.48-6.21,13.96-6.21Zm84.73,20.02l31.5-35.07h-23.58l-27.31,31.19V41.2h-19.86v97.17h19.86v-38.63l31.19,38.63h24.83l-36.62-41.89Zm-498.4-60.77c-2.02-1.93-4.64-2.89-7.86-2.89s-5.88,.96-8,2.89c-2.02,1.84-3.03,4.23-3.03,7.17s1.01,5.38,3.03,7.31c2.12,1.93,4.78,2.89,8,2.89s5.84-.96,7.86-2.89c2.12-1.93,3.17-4.36,3.17-7.31s-1.06-5.33-3.17-7.17Z"/></g></svg>