<svg width="743" height="190" viewBox="0 0 743 190" fill="none" xmlns="http://www.w3.org/2000/svg">
<g clip-path="url(#clip0_3864_578)">
<path d="M59.6205 50.599H118.888V62.4331H59.4733L101.399 104.668L93.0963 113.032L51.1706 70.797V102.147H39.4231V76.373C39.4231 75.2756 38.7165 74.5934 38.0688 74.3265C37.4211 74.0596 36.4495 74.0299 35.6545 74.8011L17.5476 93.1009L9.21541 84.737L27.5285 66.2295C28.294 65.4583 28.2645 64.4796 27.9995 63.7974C27.7346 63.1152 27.0574 62.4331 25.968 62.4331H0V50.599H25.7914C26.8807 50.599 27.5579 49.8871 27.8229 49.2346C28.0879 48.5821 28.1173 47.5737 27.3518 46.8026L9.24486 28.562L17.5476 20.1981L35.6545 38.4386C36.42 39.2098 37.3916 39.2098 38.0688 38.9132C38.7165 38.6462 39.4231 37.9641 39.4231 36.8667V10.8553H51.1706V42.3537L93.0963 0L101.428 8.36396L100.898 8.89783L59.6205 50.599ZM189.696 35.4133C193.73 35.4133 196.968 36.3624 199.383 38.231C201.856 40.0699 203.475 42.5909 204.241 45.8535H216.43C215.281 39.3877 212.367 34.3753 207.685 30.8458C203.063 27.257 197.145 25.4478 189.873 25.4478C183.749 25.4478 178.508 26.7528 174.121 29.3925C169.734 32.0322 166.378 35.6803 163.993 40.3665C161.638 45.0527 160.46 50.4507 160.46 56.5902C160.46 62.7297 161.638 68.098 163.993 72.8139C166.349 77.4407 169.734 81.0889 174.121 83.6989C178.508 86.2792 183.749 87.5546 189.873 87.5546C197.145 87.5546 203.092 85.8047 207.685 82.3345C212.367 78.8347 215.281 74.0003 216.43 67.8311H204.241C203.505 70.9157 201.885 73.3477 199.383 75.1273C196.968 76.8476 193.73 77.7077 189.696 77.7077C184.102 77.7077 179.715 75.8391 176.536 72.1317C173.356 68.365 171.766 63.1746 171.766 56.6198C171.766 50.0651 173.356 44.8747 176.536 41.108C179.715 37.3412 184.102 35.443 189.696 35.443V35.4133ZM234.919 47.3661V38.2903H222.789V86.3979H235.096V64.5092C235.096 60.8315 235.685 57.9545 236.833 55.8783C238.04 53.8022 239.718 52.3489 241.838 51.5184C243.958 50.6879 246.372 50.2727 249.052 50.2727H252.526V37.1929C248.492 37.1929 244.959 38.142 241.956 40.0106C239.012 41.8198 236.657 44.2815 234.949 47.3661H234.919ZM301.076 48.8194C303.137 52.3785 304.168 56.3529 304.168 60.7425C304.168 61.4543 304.138 62.1958 304.079 62.9669C304.079 63.7381 304.05 64.5389 303.991 65.399H267.748C268.012 69.1361 269.278 72.0724 271.604 74.2079C273.989 76.3433 276.816 77.4111 280.172 77.4111C282.675 77.4111 284.765 76.8476 286.414 75.7502C288.151 74.5934 289.417 73.1105 290.271 71.3012H302.784C301.871 74.3265 300.369 77.1145 298.25 79.6355C296.189 82.0973 293.627 84.0251 290.565 85.4488C287.562 86.8724 284.117 87.5843 280.29 87.5843C275.491 87.5843 271.222 86.5462 267.512 84.47C263.802 82.3939 260.887 79.4872 258.768 75.7502C256.648 72.0131 255.588 67.6828 255.588 62.7593C255.588 57.8359 256.618 53.3573 258.679 49.5016C260.799 45.6162 263.684 42.6206 267.335 40.4851C271.045 38.2903 275.402 37.1929 280.408 37.1929C285.089 37.1929 289.211 38.231 292.803 40.3072C296.395 42.3833 299.192 45.201 301.164 48.8194H301.076ZM291.655 57.6283C291.448 54.4547 290.3 51.9336 288.18 50.0651C286.061 48.1966 283.44 47.2475 280.29 47.2475C277.14 47.2475 274.608 48.1076 272.311 49.8575C270.015 51.5481 268.542 54.1284 267.895 57.5986H291.655V57.6283ZM355.22 56.8571V86.3979H343.591V78.6568C342.177 81.2372 340.205 83.3726 337.614 85.0632C335.111 86.7538 331.873 87.5843 327.898 87.5843C323.923 87.5843 320.42 86.9318 317.799 85.6564C315.179 84.2921 313.206 82.5125 311.94 80.3177C310.645 78.1229 310.027 75.6908 310.027 73.0511C310.027 68.6022 311.764 64.9838 315.208 62.1958C318.683 59.4078 323.864 58.0435 330.783 58.0435H342.913V56.8868C342.913 53.5946 341.971 51.1625 340.116 49.6202C338.262 48.0779 335.936 47.3068 333.198 47.3068C330.695 47.3068 328.516 47.9296 326.661 49.1457C324.807 50.3024 323.658 52.0523 323.187 54.3657H311.175C311.499 50.8659 312.647 47.8406 314.649 45.2603C316.71 42.6799 319.33 40.6927 322.539 39.3581C325.749 37.9344 329.341 37.2226 333.315 37.2226C340.116 37.2226 345.475 38.9428 349.361 42.3537C353.277 45.7645 355.22 50.6286 355.22 56.8868V56.8571ZM342.619 65.7846H332.138C328.87 65.7846 326.514 66.4074 325.13 67.6235C323.717 68.7802 323.011 70.2335 323.011 71.9834C323.011 73.852 323.717 75.3053 325.13 76.3433C326.544 77.3814 328.398 77.8856 330.695 77.8856C334.228 77.8856 336.937 76.7289 338.88 74.3858C340.853 72.0724 342.119 69.1954 342.619 65.7549V65.7846ZM380.276 25.4774H367.969V38.3496H359.784V48.7304H367.969V69.67C367.969 75.9281 369.47 80.288 372.503 82.7498C375.506 85.2115 379.51 86.4275 384.515 86.4275H392.877V75.8688H386.9C384.456 75.8688 382.719 75.4536 381.718 74.6231C380.747 73.7333 380.276 72.102 380.276 69.7886V48.7601H393.171V38.3793H380.276V25.5071V25.4774ZM401.15 86.4275H413.457V38.3496H401.15V86.3979V86.4275ZM455.765 38.3793L443.635 74.7121L431.505 38.3793H418.609L436.098 86.4275H450.996L468.602 38.3793H455.707H455.765ZM513.884 48.8491C515.945 52.4082 516.976 56.3826 516.976 60.7722C516.976 61.484 516.946 62.2255 516.887 62.9966C516.887 63.7678 516.858 64.5686 516.799 65.4287H480.556C480.821 69.1658 482.087 72.1021 484.413 74.2375C486.798 76.373 489.653 77.4407 492.98 77.4407C495.483 77.4407 497.573 76.8772 499.222 75.7798C500.959 74.6231 502.225 73.1401 503.079 71.3309H515.592C514.709 74.3562 513.178 77.1442 511.058 79.6652C508.997 82.1269 506.436 84.0548 503.374 85.4784C500.37 86.9021 496.926 87.6139 493.069 87.6139C488.27 87.6139 484.001 86.5758 480.291 84.4997C476.581 82.4235 473.666 79.5169 471.547 75.7798C469.427 72.0427 468.367 67.7125 468.367 62.789C468.367 57.8655 469.397 53.387 471.458 49.5312C473.578 45.6458 476.463 42.6502 480.114 40.5148C483.824 38.32 488.181 37.2226 493.187 37.2226C497.868 37.2226 501.99 38.2607 505.582 40.3368C509.174 42.413 511.971 45.2306 513.943 48.8491H513.884ZM504.463 57.6579C504.257 54.4844 503.109 51.9633 500.989 50.0948C498.869 48.2262 496.249 47.2771 493.098 47.2771C489.948 47.2771 487.416 48.1372 485.119 49.8871C482.823 51.5777 481.351 54.1581 480.703 57.6283H504.463V57.6579ZM582.544 39.9512C584.781 44.4891 585.9 49.8278 585.9 55.9673C585.9 62.1068 584.781 67.4752 582.544 72.0724C580.365 76.6103 577.009 80.1397 572.416 82.6905C567.911 85.1819 562.111 86.4275 555.074 86.4275H534.582V25.4478H555.074C562.111 25.4478 567.881 26.7231 572.416 29.2738C576.979 31.7652 580.365 35.2947 582.544 39.8919V39.9512ZM573.593 55.997C573.593 51.8447 573.004 48.2559 571.856 45.2603C570.708 42.2647 568.794 39.9512 566.115 38.3496C563.436 36.748 559.785 35.9472 555.162 35.9472H546.889V75.9874H555.162C559.785 75.9874 563.436 75.2163 566.115 73.6443C568.794 72.0427 570.708 69.759 571.856 66.8227C573.004 63.8271 573.593 60.2086 573.593 55.997ZM635.716 49.3236C637.895 53.0607 638.984 57.4206 638.984 62.4034C638.984 67.3862 637.895 71.7758 635.716 75.5722C633.596 79.3093 630.682 82.2456 626.972 84.381C623.262 86.5165 619.111 87.5843 614.577 87.5843C610.043 87.5843 605.803 86.5165 602.064 84.381C598.413 82.2456 595.498 79.3093 593.32 75.5722C591.2 71.7758 590.14 67.3565 590.14 62.4034C590.14 57.4503 591.229 53.0607 593.408 49.3236C595.587 45.5272 598.501 42.5316 602.152 40.3961C605.862 38.2606 610.043 37.1929 614.665 37.1929C619.288 37.1929 623.321 38.2606 626.972 40.3961C630.682 42.5316 633.596 45.4975 635.716 49.3236ZM626.471 62.4034C626.471 57.6283 625.294 54.0395 622.909 51.6371C620.524 49.1753 617.786 47.9593 614.636 47.9593C611.485 47.9593 608.541 49.1753 606.186 51.6371C603.889 54.0395 602.712 57.5986 602.712 62.4034C602.712 67.2082 603.86 70.797 606.186 73.2588C608.571 75.6612 611.338 76.8476 614.547 76.8476C617.757 76.8476 620.554 75.6612 622.909 73.2588C625.294 70.797 626.471 67.1786 626.471 62.4034ZM667.867 47.7813C670.429 47.7813 672.637 48.4635 674.492 49.8278C676.405 51.1328 677.701 52.9421 678.349 55.2555H691.333C690.184 49.6499 687.505 45.2306 683.354 42.0867C679.173 38.8538 674.05 37.2522 667.955 37.2522C663.068 37.2522 658.799 38.32 655.06 40.4554C651.35 42.5909 648.376 45.5569 646.198 49.3829C644.078 53.1793 643.018 57.5393 643.018 62.4627C643.018 67.3862 644.078 71.7165 646.198 75.5425C648.376 79.3389 651.321 82.3345 655.06 84.47C658.77 86.6055 663.068 87.6732 667.955 87.6732C674.05 87.6732 679.173 86.0123 683.354 82.7201C687.505 79.4279 690.184 75.068 691.333 69.6403H678.349C677.701 72.0427 676.435 73.8816 674.492 75.157C672.637 76.462 670.429 77.0848 667.867 77.0848C664.481 77.0848 661.596 75.7798 659.211 73.1994C656.826 70.6191 655.649 67.0303 655.649 62.4331C655.649 57.8359 656.826 54.2767 659.211 51.6667C661.596 49.0863 664.481 47.7813 667.867 47.7813ZM720.039 60.2679L739.559 38.3793H724.956L708.026 57.8655V25.7147H695.72V86.3979H708.026V62.2848L727.37 86.3979H742.768L720.068 60.2383L720.039 60.2679ZM407.304 20.4947C405.302 20.4947 403.653 21.0878 402.357 22.3039C401.091 23.4606 400.473 24.9436 400.473 26.7825C400.473 28.6213 401.091 30.134 402.357 31.35C403.682 32.566 405.331 33.1592 407.304 33.1592C409.276 33.1592 410.925 32.566 412.162 31.35C413.486 30.134 414.134 28.6213 414.134 26.7825C414.134 24.9436 413.486 23.4606 412.162 22.3039C410.896 21.0878 409.276 20.4947 407.304 20.4947Z" fill="white"/>
</g>
<path d="M79.1223 188.016H75.4778L75.5013 185.684H79.1223C80.177 185.684 81.0598 185.453 81.7708 184.992C82.4895 184.531 83.0286 183.871 83.388 183.012C83.7552 182.152 83.9388 181.129 83.9388 179.941V179.016C83.9388 178.094 83.8333 177.277 83.6223 176.566C83.4192 175.855 83.1145 175.258 82.7083 174.773C82.3098 174.289 81.8177 173.922 81.2317 173.672C80.6536 173.422 79.9856 173.297 79.2278 173.297H75.4075V170.953H79.2278C80.3606 170.953 81.3958 171.145 82.3333 171.527C83.2708 171.902 84.0794 172.445 84.7591 173.156C85.4466 173.867 85.9739 174.719 86.3411 175.711C86.7083 176.703 86.8919 177.812 86.8919 179.039V179.941C86.8919 181.168 86.7083 182.277 86.3411 183.27C85.9739 184.262 85.4466 185.113 84.7591 185.824C84.0716 186.527 83.2513 187.07 82.2981 187.453C81.3528 187.828 80.2942 188.016 79.1223 188.016ZM77.1067 170.953V188.016H74.1653V170.953H77.1067ZM107.29 179.016V179.953C107.29 181.242 107.123 182.398 106.787 183.422C106.451 184.445 105.97 185.316 105.345 186.035C104.728 186.754 103.986 187.305 103.119 187.688C102.251 188.062 101.29 188.25 100.236 188.25C99.1889 188.25 98.2319 188.062 97.3647 187.688C96.5053 187.305 95.7592 186.754 95.1264 186.035C94.4936 185.316 94.0014 184.445 93.6498 183.422C93.3061 182.398 93.1342 181.242 93.1342 179.953V179.016C93.1342 177.727 93.3061 176.574 93.6498 175.559C93.9936 174.535 94.478 173.664 95.103 172.945C95.7358 172.219 96.4819 171.668 97.3413 171.293C98.2084 170.91 99.1655 170.719 100.212 170.719C101.267 170.719 102.228 170.91 103.095 171.293C103.962 171.668 104.708 172.219 105.333 172.945C105.958 173.664 106.439 174.535 106.775 175.559C107.119 176.574 107.29 177.727 107.29 179.016ZM104.349 179.953V178.992C104.349 178.039 104.255 177.199 104.068 176.473C103.888 175.738 103.619 175.125 103.259 174.633C102.908 174.133 102.474 173.758 101.958 173.508C101.443 173.25 100.861 173.121 100.212 173.121C99.5639 173.121 98.9858 173.25 98.478 173.508C97.9702 173.758 97.5366 174.133 97.1772 174.633C96.8256 175.125 96.5561 175.738 96.3686 176.473C96.1811 177.199 96.0873 178.039 96.0873 178.992V179.953C96.0873 180.906 96.1811 181.75 96.3686 182.484C96.5561 183.219 96.8295 183.84 97.1889 184.348C97.5561 184.848 97.9936 185.227 98.5014 185.484C99.0092 185.734 99.5873 185.859 100.236 185.859C100.892 185.859 101.474 185.734 101.982 185.484C102.49 185.227 102.919 184.848 103.271 184.348C103.623 183.84 103.888 183.219 104.068 182.484C104.255 181.75 104.349 180.906 104.349 179.953ZM125.084 170.953H127.709L132.642 184.113L137.564 170.953H140.189L133.674 188.016H131.588L125.084 170.953ZM123.888 170.953H126.385L126.818 182.344V188.016H123.888V170.953ZM138.888 170.953H141.396V188.016H138.455V182.344L138.888 170.953ZM162.334 179.016V179.953C162.334 181.242 162.166 182.398 161.83 183.422C161.494 184.445 161.014 185.316 160.389 186.035C159.771 186.754 159.029 187.305 158.162 187.688C157.295 188.062 156.334 188.25 155.279 188.25C154.232 188.25 153.275 188.062 152.408 187.688C151.549 187.305 150.803 186.754 150.17 186.035C149.537 185.316 149.045 184.445 148.693 183.422C148.35 182.398 148.178 181.242 148.178 179.953V179.016C148.178 177.727 148.35 176.574 148.693 175.559C149.037 174.535 149.521 173.664 150.146 172.945C150.779 172.219 151.525 171.668 152.385 171.293C153.252 170.91 154.209 170.719 155.256 170.719C156.31 170.719 157.271 170.91 158.139 171.293C159.006 171.668 159.752 172.219 160.377 172.945C161.002 173.664 161.482 174.535 161.818 175.559C162.162 176.574 162.334 177.727 162.334 179.016ZM159.393 179.953V178.992C159.393 178.039 159.299 177.199 159.111 176.473C158.932 175.738 158.662 175.125 158.303 174.633C157.951 174.133 157.518 173.758 157.002 173.508C156.486 173.25 155.904 173.121 155.256 173.121C154.607 173.121 154.029 173.25 153.521 173.508C153.014 173.758 152.58 174.133 152.221 174.633C151.869 175.125 151.6 175.738 151.412 176.473C151.225 177.199 151.131 178.039 151.131 178.992V179.953C151.131 180.906 151.225 181.75 151.412 182.484C151.6 183.219 151.873 183.84 152.232 184.348C152.6 184.848 153.037 185.227 153.545 185.484C154.053 185.734 154.631 185.859 155.279 185.859C155.935 185.859 156.518 185.734 157.025 185.484C157.533 185.227 157.963 184.848 158.314 184.348C158.666 183.84 158.932 183.219 159.111 182.484C159.299 181.75 159.393 180.906 159.393 179.953ZM169.115 170.953H175.15C176.447 170.953 177.553 171.148 178.467 171.539C179.381 171.93 180.08 172.508 180.565 173.273C181.057 174.031 181.303 174.969 181.303 176.086C181.303 176.938 181.147 177.688 180.834 178.336C180.522 178.984 180.08 179.531 179.51 179.977C178.94 180.414 178.26 180.754 177.471 180.996L176.58 181.43H171.154L171.131 179.098H175.197C175.9 179.098 176.486 178.973 176.955 178.723C177.424 178.473 177.775 178.133 178.01 177.703C178.252 177.266 178.373 176.773 178.373 176.227C178.373 175.633 178.256 175.117 178.022 174.68C177.795 174.234 177.443 173.895 176.967 173.66C176.49 173.418 175.885 173.297 175.15 173.297H172.057V188.016H169.115V170.953ZM178.854 188.016L174.846 180.352L177.928 180.34L181.994 187.863V188.016H178.854ZM199.24 185.684V188.016H190.182V185.684H199.24ZM191.014 170.953V188.016H188.073V170.953H191.014ZM198.057 178.078V180.375H190.182V178.078H198.057ZM199.182 170.953V173.297H190.182V170.953H199.182ZM205.319 186.609C205.319 186.172 205.467 185.805 205.764 185.508C206.061 185.203 206.463 185.051 206.971 185.051C207.487 185.051 207.889 185.203 208.178 185.508C208.475 185.805 208.623 186.172 208.623 186.609C208.623 187.047 208.475 187.414 208.178 187.711C207.889 188.008 207.487 188.156 206.971 188.156C206.463 188.156 206.061 188.008 205.764 187.711C205.467 187.414 205.319 187.047 205.319 186.609ZM232.217 180.305H227.87L227.846 178.16H231.643C232.284 178.16 232.827 178.066 233.272 177.879C233.725 177.684 234.069 177.406 234.303 177.047C234.538 176.68 234.655 176.238 234.655 175.723C234.655 175.152 234.546 174.688 234.327 174.328C234.108 173.969 233.772 173.707 233.319 173.543C232.874 173.379 232.303 173.297 231.608 173.297H228.76V188.016H225.819V170.953H231.608C232.546 170.953 233.382 171.043 234.116 171.223C234.858 171.402 235.487 171.684 236.003 172.066C236.526 172.441 236.921 172.918 237.186 173.496C237.46 174.074 237.596 174.762 237.596 175.559C237.596 176.262 237.428 176.906 237.092 177.492C236.757 178.07 236.26 178.543 235.604 178.91C234.948 179.277 234.132 179.496 233.155 179.566L232.217 180.305ZM232.089 188.016H226.944L228.268 185.684H232.089C232.753 185.684 233.307 185.574 233.753 185.355C234.198 185.129 234.53 184.82 234.749 184.43C234.975 184.031 235.089 183.566 235.089 183.035C235.089 182.48 234.991 182 234.796 181.594C234.6 181.18 234.292 180.863 233.87 180.645C233.448 180.418 232.897 180.305 232.217 180.305H228.913L228.936 178.16H233.237L233.905 178.969C234.842 179 235.612 179.207 236.214 179.59C236.823 179.973 237.276 180.469 237.573 181.078C237.87 181.688 238.018 182.344 238.018 183.047C238.018 184.133 237.78 185.043 237.303 185.777C236.835 186.512 236.159 187.07 235.276 187.453C234.393 187.828 233.331 188.016 232.089 188.016ZM255.991 185.684V188.016H246.932V185.684H255.991ZM247.765 170.953V188.016H244.823V170.953H247.765ZM254.807 178.078V180.375H246.932V178.078H254.807ZM255.932 170.953V173.297H246.932V170.953H255.932ZM273.245 170.953H275.87L280.804 184.113L285.726 170.953H288.351L281.835 188.016H279.749L273.245 170.953ZM272.05 170.953H274.546L274.98 182.344V188.016H272.05V170.953ZM287.05 170.953H289.558V188.016H286.616V182.344L287.05 170.953ZM310.495 179.016V179.953C310.495 181.242 310.327 182.398 309.992 183.422C309.656 184.445 309.175 185.316 308.55 186.035C307.933 186.754 307.191 187.305 306.324 187.688C305.456 188.062 304.495 188.25 303.441 188.25C302.394 188.25 301.437 188.062 300.57 187.688C299.71 187.305 298.964 186.754 298.331 186.035C297.699 185.316 297.206 184.445 296.855 183.422C296.511 182.398 296.339 181.242 296.339 179.953V179.016C296.339 177.727 296.511 176.574 296.855 175.559C297.199 174.535 297.683 173.664 298.308 172.945C298.941 172.219 299.687 171.668 300.546 171.293C301.413 170.91 302.37 170.719 303.417 170.719C304.472 170.719 305.433 170.91 306.3 171.293C307.167 171.668 307.913 172.219 308.538 172.945C309.163 173.664 309.644 174.535 309.98 175.559C310.324 176.574 310.495 177.727 310.495 179.016ZM307.554 179.953V178.992C307.554 178.039 307.46 177.199 307.273 176.473C307.093 175.738 306.824 175.125 306.464 174.633C306.113 174.133 305.679 173.758 305.163 173.508C304.648 173.25 304.066 173.121 303.417 173.121C302.769 173.121 302.191 173.25 301.683 173.508C301.175 173.758 300.742 174.133 300.382 174.633C300.031 175.125 299.761 175.738 299.574 176.473C299.386 177.199 299.292 178.039 299.292 178.992V179.953C299.292 180.906 299.386 181.75 299.574 182.484C299.761 183.219 300.035 183.84 300.394 184.348C300.761 184.848 301.199 185.227 301.706 185.484C302.214 185.734 302.792 185.859 303.441 185.859C304.097 185.859 304.679 185.734 305.187 185.484C305.695 185.227 306.124 184.848 306.476 184.348C306.827 183.84 307.093 183.219 307.273 182.484C307.46 181.75 307.554 180.906 307.554 179.953ZM317.277 170.953H323.312C324.609 170.953 325.714 171.148 326.628 171.539C327.542 171.93 328.242 172.508 328.726 173.273C329.218 174.031 329.464 174.969 329.464 176.086C329.464 176.938 329.308 177.688 328.996 178.336C328.683 178.984 328.242 179.531 327.671 179.977C327.101 180.414 326.421 180.754 325.632 180.996L324.742 181.43H319.316L319.292 179.098H323.359C324.062 179.098 324.648 178.973 325.117 178.723C325.585 178.473 325.937 178.133 326.171 177.703C326.414 177.266 326.535 176.773 326.535 176.227C326.535 175.633 326.417 175.117 326.183 174.68C325.957 174.234 325.605 173.895 325.128 173.66C324.652 173.418 324.046 173.297 323.312 173.297H320.218V188.016H317.277V170.953ZM327.015 188.016L323.007 180.352L326.089 180.34L330.156 187.863V188.016H327.015ZM347.402 185.684V188.016H338.343V185.684H347.402ZM339.175 170.953V188.016H336.234V170.953H339.175ZM346.218 178.078V180.375H338.343V178.078H346.218ZM347.343 170.953V173.297H338.343V170.953H347.343ZM367.738 184.184L371.137 170.953H372.918L372.719 174.363L369.086 188.016H367.234L367.738 184.184ZM365.195 170.953L367.949 184.078L368.195 188.016H366.227L362.277 170.953H365.195ZM376.773 184.043L379.492 170.953H382.422L378.473 188.016H376.504L376.773 184.043ZM373.609 170.953L376.973 184.219L377.465 188.016H375.613L372.039 174.363L371.852 170.953H373.609ZM391.582 170.953V188.016H388.641V170.953H391.582ZM405.746 170.953V188.016H402.828V170.953H405.746ZM411.102 170.953V173.297H397.52V170.953H411.102ZM428.465 178.078V180.41H419.407V178.078H428.465ZM420.133 170.953V188.016H417.192V170.953H420.133ZM430.727 170.953V188.016H427.797V170.953H430.727ZM457.966 182.461H460.895C460.802 183.578 460.489 184.574 459.958 185.449C459.427 186.316 458.68 187 457.72 187.5C456.759 188 455.591 188.25 454.216 188.25C453.161 188.25 452.212 188.062 451.368 187.688C450.524 187.305 449.802 186.766 449.2 186.07C448.598 185.367 448.138 184.52 447.817 183.527C447.505 182.535 447.348 181.426 447.348 180.199V178.781C447.348 177.555 447.509 176.445 447.829 175.453C448.157 174.461 448.626 173.613 449.235 172.91C449.845 172.199 450.575 171.656 451.427 171.281C452.286 170.906 453.251 170.719 454.321 170.719C455.68 170.719 456.829 170.969 457.766 171.469C458.704 171.969 459.43 172.66 459.946 173.543C460.47 174.426 460.79 175.438 460.907 176.578H457.977C457.899 175.844 457.727 175.215 457.462 174.691C457.204 174.168 456.821 173.77 456.313 173.496C455.805 173.215 455.141 173.074 454.321 173.074C453.649 173.074 453.063 173.199 452.563 173.449C452.063 173.699 451.645 174.066 451.309 174.551C450.973 175.035 450.72 175.633 450.548 176.344C450.384 177.047 450.302 177.852 450.302 178.758V180.199C450.302 181.059 450.376 181.84 450.524 182.543C450.68 183.238 450.915 183.836 451.227 184.336C451.548 184.836 451.954 185.223 452.446 185.496C452.938 185.77 453.528 185.906 454.216 185.906C455.052 185.906 455.727 185.773 456.243 185.508C456.766 185.242 457.161 184.855 457.427 184.348C457.7 183.832 457.88 183.203 457.966 182.461ZM467.407 170.953H473.442C474.739 170.953 475.845 171.148 476.759 171.539C477.673 171.93 478.372 172.508 478.856 173.273C479.349 174.031 479.595 174.969 479.595 176.086C479.595 176.938 479.438 177.688 479.126 178.336C478.813 178.984 478.372 179.531 477.802 179.977C477.231 180.414 476.552 180.754 475.763 180.996L474.872 181.43H469.446L469.423 179.098H473.489C474.192 179.098 474.778 178.973 475.247 178.723C475.716 178.473 476.067 178.133 476.302 177.703C476.544 177.266 476.665 176.773 476.665 176.227C476.665 175.633 476.548 175.117 476.313 174.68C476.087 174.234 475.735 173.895 475.259 173.66C474.782 173.418 474.177 173.297 473.442 173.297H470.349V188.016H467.407V170.953ZM477.145 188.016L473.138 180.352L476.22 180.34L480.286 187.863V188.016H477.145ZM497.532 185.684V188.016H488.474V185.684H497.532ZM489.306 170.953V188.016H486.364V170.953H489.306ZM496.349 178.078V180.375H488.474V178.078H496.349ZM497.474 170.953V173.297H488.474V170.953H497.474ZM510.419 173.227L505.322 188.016H502.24L508.661 170.953H510.63L510.419 173.227ZM514.685 188.016L509.575 173.227L509.353 170.953H511.333L517.779 188.016H514.685ZM514.439 181.688V184.02H505.158V181.688H514.439ZM529.072 170.953V188.016H526.154V170.953H529.072ZM534.427 170.953V173.297H520.845V170.953H534.427ZM543.658 170.953V188.016H540.716V170.953H543.658ZM557.002 184.898L561.49 170.953H564.736L558.619 188.016H556.427L557.002 184.898ZM552.853 170.953L557.306 184.898L557.916 188.016H555.713L549.619 170.953H552.853ZM581.654 185.684V188.016H572.596V185.684H581.654ZM573.428 170.953V188.016H570.486V170.953H573.428ZM580.471 178.078V180.375H572.596V178.078H580.471ZM581.596 170.953V173.297H572.596V170.953H581.596ZM602.67 188.016H599.026L599.049 185.684H602.67C603.725 185.684 604.608 185.453 605.319 184.992C606.037 184.531 606.576 183.871 606.936 183.012C607.303 182.152 607.487 181.129 607.487 179.941V179.016C607.487 178.094 607.381 177.277 607.17 176.566C606.967 175.855 606.662 175.258 606.256 174.773C605.858 174.289 605.365 173.922 604.78 173.672C604.201 173.422 603.533 173.297 602.776 173.297H598.955V170.953H602.776C603.908 170.953 604.944 171.145 605.881 171.527C606.819 171.902 607.627 172.445 608.307 173.156C608.994 173.867 609.522 174.719 609.889 175.711C610.256 176.703 610.44 177.812 610.44 179.039V179.941C610.44 181.168 610.256 182.277 609.889 183.27C609.522 184.262 608.994 185.113 608.307 185.824C607.619 186.527 606.799 187.07 605.846 187.453C604.901 187.828 603.842 188.016 602.67 188.016ZM600.655 170.953V188.016H597.713V170.953H600.655ZM630.838 179.016V179.953C630.838 181.242 630.67 182.398 630.334 183.422C629.998 184.445 629.518 185.316 628.893 186.035C628.276 186.754 627.534 187.305 626.666 187.688C625.799 188.062 624.838 188.25 623.784 188.25C622.737 188.25 621.78 188.062 620.912 187.688C620.053 187.305 619.307 186.754 618.674 186.035C618.041 185.316 617.549 184.445 617.198 183.422C616.854 182.398 616.682 181.242 616.682 179.953V179.016C616.682 177.727 616.854 176.574 617.198 175.559C617.541 174.535 618.026 173.664 618.651 172.945C619.284 172.219 620.03 171.668 620.889 171.293C621.756 170.91 622.713 170.719 623.76 170.719C624.815 170.719 625.776 170.91 626.643 171.293C627.51 171.668 628.256 172.219 628.881 172.945C629.506 173.664 629.987 174.535 630.323 175.559C630.666 176.574 630.838 177.727 630.838 179.016ZM627.897 179.953V178.992C627.897 178.039 627.803 177.199 627.616 176.473C627.436 175.738 627.166 175.125 626.807 174.633C626.455 174.133 626.022 173.758 625.506 173.508C624.991 173.25 624.409 173.121 623.76 173.121C623.112 173.121 622.534 173.25 622.026 173.508C621.518 173.758 621.084 174.133 620.725 174.633C620.373 175.125 620.104 175.738 619.916 176.473C619.729 177.199 619.635 178.039 619.635 178.992V179.953C619.635 180.906 619.729 181.75 619.916 182.484C620.104 183.219 620.377 183.84 620.737 184.348C621.104 184.848 621.541 185.227 622.049 185.484C622.557 185.734 623.135 185.859 623.784 185.859C624.44 185.859 625.022 185.734 625.53 185.484C626.037 185.227 626.467 184.848 626.819 184.348C627.17 183.84 627.436 183.219 627.616 182.484C627.803 181.75 627.897 180.906 627.897 179.953ZM647.698 182.461H650.627C650.534 183.578 650.221 184.574 649.69 185.449C649.159 186.316 648.413 187 647.452 187.5C646.491 188 645.323 188.25 643.948 188.25C642.893 188.25 641.944 188.062 641.1 187.688C640.256 187.305 639.534 186.766 638.932 186.07C638.331 185.367 637.87 184.52 637.549 183.527C637.237 182.535 637.081 181.426 637.081 180.199V178.781C637.081 177.555 637.241 176.445 637.561 175.453C637.889 174.461 638.358 173.613 638.967 172.91C639.577 172.199 640.307 171.656 641.159 171.281C642.018 170.906 642.983 170.719 644.053 170.719C645.413 170.719 646.561 170.969 647.499 171.469C648.436 171.969 649.163 172.66 649.678 173.543C650.202 174.426 650.522 175.438 650.639 176.578H647.709C647.631 175.844 647.459 175.215 647.194 174.691C646.936 174.168 646.553 173.77 646.045 173.496C645.538 173.215 644.874 173.074 644.053 173.074C643.381 173.074 642.795 173.199 642.295 173.449C641.795 173.699 641.377 174.066 641.042 174.551C640.706 175.035 640.452 175.633 640.28 176.344C640.116 177.047 640.034 177.852 640.034 178.758V180.199C640.034 181.059 640.108 181.84 640.256 182.543C640.413 183.238 640.647 183.836 640.959 184.336C641.28 184.836 641.686 185.223 642.178 185.496C642.67 185.77 643.26 185.906 643.948 185.906C644.784 185.906 645.459 185.773 645.975 185.508C646.499 185.242 646.893 184.855 647.159 184.348C647.432 183.832 647.612 183.203 647.698 182.461ZM660.081 170.953V188.016H657.139V170.953H660.081ZM670.335 170.953L663.421 179.168L659.483 183.34L658.968 180.422L661.78 176.953L666.749 170.953H670.335ZM667.171 188.016L661.557 179.93L663.585 177.926L670.663 188.016H667.171Z" fill="white"/>
<defs>
<clipPath id="clip0_3864_578">
<rect width="742.768" height="113.032" fill="white"/>
</clipPath>
</defs>
</svg>
