<?xml version="1.0" encoding="UTF-8"?><svg id="Layer_2" xmlns="http://www.w3.org/2000/svg" viewBox="0 0 191.82 181"><defs><style>.cls-1{fill:#fff;}</style></defs><g id="Layer_1-2"><path class="cls-1" d="M96.18,81.03h95.64s0,18.95,0,18.95H95.97l67.63,67.63-13.4,13.4L82.57,113.38v50.22h-18.95v-41.29c0-1.76-1.14-2.86-2.2-3.29-1.06-.44-2.64-.47-3.88,.78l-29.19,29.29-13.42-13.38,29.55-29.65c1.24-1.24,1.21-2.82,.77-3.88-.44-1.06-1.54-2.2-3.29-2.2H0v-18.95H41.62c1.75,0,2.85-1.14,3.29-2.2,.44-1.06,.47-2.64-.77-3.88L14.93,45.74l13.4-13.4,29.21,29.21c1.24,1.24,2.82,1.21,3.88,.77,1.06-.44,2.2-1.54,2.2-3.29V17.41h18.95v50.42L150.19,0l13.42,13.38L96.18,81.03Z"/></g></svg>