<svg width="743" height="190" viewBox="0 0 743 190" fill="none" xmlns="http://www.w3.org/2000/svg">
<g clip-path="url(#clip0_3864_577)">
<path d="M59.6205 51.5833H118.888V63.4174H59.4733L101.399 105.652L93.0963 114.016L51.1706 71.7814V103.131H39.4231V77.3574C39.4231 76.26 38.7165 75.5778 38.0688 75.3109C37.4211 75.0439 36.4495 75.0143 35.6545 75.7854L17.5476 94.0853L9.21541 85.7213L27.5285 67.2139C28.294 66.4427 28.2645 65.464 27.9995 64.7818C27.7346 64.0996 27.0574 63.4174 25.968 63.4174H0V51.5833H25.7914C26.8807 51.5833 27.5579 50.8715 27.8229 50.219C28.0879 49.5665 28.1173 48.5581 27.3518 47.7869L9.24486 29.5464L17.5476 21.1824L35.6545 39.423C36.42 40.1941 37.3916 40.1941 38.0688 39.8975C38.7165 39.6306 39.4231 38.9484 39.4231 37.851V11.8397H51.1706V43.338L93.0963 0.984375L101.428 9.34833L100.898 9.8822L59.6205 51.5833ZM189.696 36.3977C193.73 36.3977 196.968 37.3468 199.383 39.2154C201.856 41.0543 203.475 43.5753 204.241 46.8378H216.43C215.281 40.3721 212.367 35.3596 207.685 31.8302C203.063 28.2414 197.145 26.4322 189.873 26.4322C183.749 26.4322 178.508 27.7372 174.121 30.3769C169.734 33.0165 166.378 36.6647 163.993 41.3508C161.638 46.037 160.46 51.435 160.46 57.5745C160.46 63.714 161.638 69.0824 163.993 73.7982C166.349 78.4251 169.734 82.0732 174.121 84.6833C178.508 87.2636 183.749 88.539 189.873 88.539C197.145 88.539 203.092 86.7891 207.685 83.3189C212.367 79.8191 215.281 74.9846 216.43 68.8155H204.241C203.505 71.9001 201.885 74.3321 199.383 76.1117C196.968 77.8319 193.73 78.6921 189.696 78.6921C184.102 78.6921 179.715 76.8235 176.536 73.1161C173.356 69.3493 171.766 64.1589 171.766 57.6042C171.766 51.0495 173.356 45.8591 176.536 42.0923C179.715 38.3256 184.102 36.4274 189.696 36.4274V36.3977ZM234.919 48.3505V39.2747H222.789V87.3823H235.096V65.4936C235.096 61.8158 235.685 58.9389 236.833 56.8627C238.04 54.7866 239.718 53.3333 241.838 52.5028C243.958 51.6723 246.372 51.2571 249.052 51.2571H252.526V38.1773C248.492 38.1773 244.959 39.1264 241.956 40.9949C239.012 42.8042 236.657 45.2659 234.949 48.3505H234.919ZM301.076 49.8038C303.137 53.3629 304.168 57.3373 304.168 61.7269C304.168 62.4387 304.138 63.1802 304.079 63.9513C304.079 64.7225 304.05 65.5233 303.991 66.3834H267.748C268.012 70.1205 269.278 73.0568 271.604 75.1922C273.989 77.3277 276.816 78.3955 280.172 78.3955C282.675 78.3955 284.765 77.8319 286.414 76.7345C288.151 75.5778 289.417 74.0948 290.271 72.2856H302.784C301.871 75.3109 300.369 78.0989 298.25 80.6199C296.189 83.0816 293.627 85.0095 290.565 86.4332C287.562 87.8568 284.117 88.5686 280.29 88.5686C275.491 88.5686 271.222 87.5306 267.512 85.4544C263.802 83.3782 260.887 80.4716 258.768 76.7345C256.648 72.9974 255.588 68.6672 255.588 63.7437C255.588 58.8202 256.618 54.3417 258.679 50.4859C260.799 46.6006 263.684 43.605 267.335 41.4695C271.045 39.2747 275.402 38.1773 280.408 38.1773C285.089 38.1773 289.211 39.2154 292.803 41.2915C296.395 43.3677 299.192 46.1853 301.164 49.8038H301.076ZM291.655 58.6126C291.448 55.4391 290.3 52.918 288.18 51.0495C286.061 49.1809 283.44 48.2318 280.29 48.2318C277.14 48.2318 274.608 49.0919 272.311 50.8419C270.015 52.5324 268.542 55.1128 267.895 58.583H291.655V58.6126ZM355.22 57.8415V87.3823H343.591V79.6412C342.177 82.2215 340.205 84.357 337.614 86.0476C335.111 87.7382 331.873 88.5686 327.898 88.5686C323.923 88.5686 320.42 87.9161 317.799 86.6408C315.179 85.2764 313.206 83.4969 311.94 81.3021C310.645 79.1073 310.027 76.6752 310.027 74.0355C310.027 69.5866 311.764 65.9682 315.208 63.1802C318.683 60.3922 323.864 59.0279 330.783 59.0279H342.913V57.8711C342.913 54.5789 341.971 52.1469 340.116 50.6046C338.262 49.0623 335.936 48.2911 333.198 48.2911C330.695 48.2911 328.516 48.914 326.661 50.13C324.807 51.2868 323.658 53.0367 323.187 55.3501H311.175C311.499 51.8503 312.647 48.825 314.649 46.2446C316.71 43.6643 319.33 41.6771 322.539 40.3424C325.749 38.9188 329.341 38.2069 333.315 38.2069C340.116 38.2069 345.475 39.9272 349.361 43.338C353.277 46.7489 355.22 51.613 355.22 57.8711V57.8415ZM342.619 66.769H332.138C328.87 66.769 326.514 67.3918 325.13 68.6078C323.717 69.7646 323.011 71.2179 323.011 72.9678C323.011 74.8363 323.717 76.2896 325.13 77.3277C326.544 78.3658 328.398 78.87 330.695 78.87C334.228 78.87 336.937 77.7133 338.88 75.3702C340.853 73.0568 342.119 70.1798 342.619 66.7393V66.769ZM380.276 26.4618H367.969V39.334H359.784V49.7148H367.969V70.6544C367.969 76.9125 369.47 81.2724 372.503 83.7342C375.506 86.1959 379.51 87.4119 384.515 87.4119H392.877V76.8532H386.9C384.456 76.8532 382.719 76.4379 381.718 75.6075C380.747 74.7177 380.276 73.0864 380.276 70.773V49.7445H393.171V39.3637H380.276V26.4915V26.4618ZM401.15 87.4119H413.457V39.334H401.15V87.3823V87.4119ZM455.765 39.3637L443.635 75.6965L431.505 39.3637H418.609L436.098 87.4119H450.996L468.602 39.3637H455.707H455.765ZM513.884 49.8334C515.945 53.3926 516.976 57.3669 516.976 61.7565C516.976 62.4684 516.946 63.2098 516.887 63.981C516.887 64.7521 516.858 65.5529 516.799 66.4131H480.556C480.821 70.1501 482.087 73.0864 484.413 75.2219C486.798 77.3574 489.653 78.4251 492.98 78.4251C495.483 78.4251 497.573 77.8616 499.222 76.7642C500.959 75.6075 502.225 74.1245 503.079 72.3153H515.592C514.709 75.3405 513.178 78.1285 511.058 80.6496C508.997 83.1113 506.436 85.0392 503.374 86.4628C500.37 87.8865 496.926 88.5983 493.069 88.5983C488.27 88.5983 484.001 87.5602 480.291 85.4841C476.581 83.4079 473.666 80.5013 471.547 76.7642C469.427 73.0271 468.367 68.6968 468.367 63.7734C468.367 58.8499 469.397 54.3713 471.458 50.5156C473.578 46.6302 476.463 43.6346 480.114 41.4991C483.824 39.3043 488.181 38.2069 493.187 38.2069C497.868 38.2069 501.99 39.245 505.582 41.3212C509.174 43.3973 511.971 46.215 513.943 49.8334H513.884ZM504.463 58.6423C504.257 55.4687 503.109 52.9477 500.989 51.0791C498.869 49.2106 496.249 48.2615 493.098 48.2615C489.948 48.2615 487.416 49.1216 485.119 50.8715C482.823 52.5621 481.351 55.1425 480.703 58.6126H504.463V58.6423ZM582.544 40.9356C584.781 45.4735 585.9 50.8122 585.9 56.9517C585.9 63.0912 584.781 68.4596 582.544 73.0568C580.365 77.5947 577.009 81.1241 572.416 83.6748C567.911 86.1662 562.111 87.4119 555.074 87.4119H534.582V26.4322H555.074C562.111 26.4322 567.881 27.7075 572.416 30.2582C576.979 32.7496 580.365 36.2791 582.544 40.8763V40.9356ZM573.593 56.9814C573.593 52.829 573.004 49.2403 571.856 46.2446C570.708 43.249 568.794 40.9356 566.115 39.334C563.436 37.7324 559.785 36.9316 555.162 36.9316H546.889V76.9718H555.162C559.785 76.9718 563.436 76.2007 566.115 74.6287C568.794 73.0271 570.708 70.7433 571.856 67.8071C573.004 64.8114 573.593 61.193 573.593 56.9814ZM635.716 50.308C637.895 54.0451 638.984 58.405 638.984 63.3878C638.984 68.3706 637.895 72.7602 635.716 76.5566C633.596 80.2937 630.682 83.2299 626.972 85.3654C623.262 87.5009 619.111 88.5686 614.577 88.5686C610.043 88.5686 605.803 87.5009 602.064 85.3654C598.413 83.2299 595.498 80.2937 593.32 76.5566C591.2 72.7602 590.14 68.3409 590.14 63.3878C590.14 58.4347 591.229 54.0451 593.408 50.308C595.587 46.5116 598.501 43.516 602.152 41.3805C605.862 39.245 610.043 38.1773 614.665 38.1773C619.288 38.1773 623.321 39.245 626.972 41.3805C630.682 43.516 633.596 46.4819 635.716 50.308ZM626.471 63.3878C626.471 58.6126 625.294 55.0238 622.909 52.6214C620.524 50.1597 617.786 48.9437 614.636 48.9437C611.485 48.9437 608.541 50.1597 606.186 52.6214C603.889 55.0238 602.712 58.583 602.712 63.3878C602.712 68.1926 603.86 71.7814 606.186 74.2431C608.571 76.6456 611.338 77.8319 614.547 77.8319C617.757 77.8319 620.554 76.6456 622.909 74.2431C625.294 71.7814 626.471 68.163 626.471 63.3878ZM667.867 48.7657C670.429 48.7657 672.637 49.4479 674.492 50.8122C676.405 52.1172 677.701 53.9264 678.349 56.2399H691.333C690.184 50.6342 687.505 46.215 683.354 43.0711C679.173 39.8382 674.05 38.2366 667.955 38.2366C663.068 38.2366 658.799 39.3043 655.06 41.4398C651.35 43.5753 648.376 46.5412 646.198 50.3673C644.078 54.1637 643.018 58.5236 643.018 63.4471C643.018 68.3706 644.078 72.7008 646.198 76.5269C648.376 80.3233 651.321 83.3189 655.06 85.4544C658.77 87.5899 663.068 88.6576 667.955 88.6576C674.05 88.6576 679.173 86.9967 683.354 83.7045C687.505 80.4123 690.184 76.0524 691.333 70.6247H678.349C677.701 73.0271 676.435 74.866 674.492 76.1413C672.637 77.4464 670.429 78.0692 667.867 78.0692C664.481 78.0692 661.596 76.7642 659.211 74.1838C656.826 71.6035 655.649 68.0147 655.649 63.4174C655.649 58.8202 656.826 55.2611 659.211 52.6511C661.596 50.0707 664.481 48.7657 667.867 48.7657ZM720.039 61.2523L739.559 39.3637H724.956L708.026 58.8499V26.6991H695.72V87.3823H708.026V63.2692L727.37 87.3823H742.768L720.068 61.2227L720.039 61.2523ZM407.304 21.479C405.302 21.479 403.653 22.0722 402.357 23.2883C401.091 24.445 400.473 25.9279 400.473 27.7668C400.473 29.6057 401.091 31.1183 402.357 32.3344C403.682 33.5504 405.331 34.1436 407.304 34.1436C409.276 34.1436 410.925 33.5504 412.162 32.3344C413.486 31.1183 414.134 29.6057 414.134 27.7668C414.134 25.9279 413.486 24.445 412.162 23.2883C410.896 22.0722 409.276 21.479 407.304 21.479Z" fill="#1B1B1B"/>
</g>
<path d="M79.1223 189H75.4778L75.5013 186.668H79.1223C80.177 186.668 81.0598 186.438 81.7708 185.977C82.4895 185.516 83.0286 184.855 83.388 183.996C83.7552 183.137 83.9388 182.113 83.9388 180.926V180C83.9388 179.078 83.8333 178.262 83.6223 177.551C83.4192 176.84 83.1145 176.242 82.7083 175.758C82.3098 175.273 81.8177 174.906 81.2317 174.656C80.6536 174.406 79.9856 174.281 79.2278 174.281H75.4075V171.938H79.2278C80.3606 171.938 81.3958 172.129 82.3333 172.512C83.2708 172.887 84.0794 173.43 84.7591 174.141C85.4466 174.852 85.9739 175.703 86.3411 176.695C86.7083 177.688 86.8919 178.797 86.8919 180.023V180.926C86.8919 182.152 86.7083 183.262 86.3411 184.254C85.9739 185.246 85.4466 186.098 84.7591 186.809C84.0716 187.512 83.2513 188.055 82.2981 188.438C81.3528 188.812 80.2942 189 79.1223 189ZM77.1067 171.938V189H74.1653V171.938H77.1067ZM107.29 180V180.938C107.29 182.227 107.123 183.383 106.787 184.406C106.451 185.43 105.97 186.301 105.345 187.02C104.728 187.738 103.986 188.289 103.119 188.672C102.251 189.047 101.29 189.234 100.236 189.234C99.1889 189.234 98.2319 189.047 97.3647 188.672C96.5053 188.289 95.7592 187.738 95.1264 187.02C94.4936 186.301 94.0014 185.43 93.6498 184.406C93.3061 183.383 93.1342 182.227 93.1342 180.938V180C93.1342 178.711 93.3061 177.559 93.6498 176.543C93.9936 175.52 94.478 174.648 95.103 173.93C95.7358 173.203 96.4819 172.652 97.3413 172.277C98.2084 171.895 99.1655 171.703 100.212 171.703C101.267 171.703 102.228 171.895 103.095 172.277C103.962 172.652 104.708 173.203 105.333 173.93C105.958 174.648 106.439 175.52 106.775 176.543C107.119 177.559 107.29 178.711 107.29 180ZM104.349 180.938V179.977C104.349 179.023 104.255 178.184 104.068 177.457C103.888 176.723 103.619 176.109 103.259 175.617C102.908 175.117 102.474 174.742 101.958 174.492C101.443 174.234 100.861 174.105 100.212 174.105C99.5639 174.105 98.9858 174.234 98.478 174.492C97.9702 174.742 97.5366 175.117 97.1772 175.617C96.8256 176.109 96.5561 176.723 96.3686 177.457C96.1811 178.184 96.0873 179.023 96.0873 179.977V180.938C96.0873 181.891 96.1811 182.734 96.3686 183.469C96.5561 184.203 96.8295 184.824 97.1889 185.332C97.5561 185.832 97.9936 186.211 98.5014 186.469C99.0092 186.719 99.5873 186.844 100.236 186.844C100.892 186.844 101.474 186.719 101.982 186.469C102.49 186.211 102.919 185.832 103.271 185.332C103.623 184.824 103.888 184.203 104.068 183.469C104.255 182.734 104.349 181.891 104.349 180.938ZM125.084 171.938H127.709L132.642 185.098L137.564 171.938H140.189L133.674 189H131.588L125.084 171.938ZM123.888 171.938H126.385L126.818 183.328V189H123.888V171.938ZM138.888 171.938H141.396V189H138.455V183.328L138.888 171.938ZM162.334 180V180.938C162.334 182.227 162.166 183.383 161.83 184.406C161.494 185.43 161.014 186.301 160.389 187.02C159.771 187.738 159.029 188.289 158.162 188.672C157.295 189.047 156.334 189.234 155.279 189.234C154.232 189.234 153.275 189.047 152.408 188.672C151.549 188.289 150.803 187.738 150.17 187.02C149.537 186.301 149.045 185.43 148.693 184.406C148.35 183.383 148.178 182.227 148.178 180.938V180C148.178 178.711 148.35 177.559 148.693 176.543C149.037 175.52 149.521 174.648 150.146 173.93C150.779 173.203 151.525 172.652 152.385 172.277C153.252 171.895 154.209 171.703 155.256 171.703C156.31 171.703 157.271 171.895 158.139 172.277C159.006 172.652 159.752 173.203 160.377 173.93C161.002 174.648 161.482 175.52 161.818 176.543C162.162 177.559 162.334 178.711 162.334 180ZM159.393 180.938V179.977C159.393 179.023 159.299 178.184 159.111 177.457C158.932 176.723 158.662 176.109 158.303 175.617C157.951 175.117 157.518 174.742 157.002 174.492C156.486 174.234 155.904 174.105 155.256 174.105C154.607 174.105 154.029 174.234 153.521 174.492C153.014 174.742 152.58 175.117 152.221 175.617C151.869 176.109 151.6 176.723 151.412 177.457C151.225 178.184 151.131 179.023 151.131 179.977V180.938C151.131 181.891 151.225 182.734 151.412 183.469C151.6 184.203 151.873 184.824 152.232 185.332C152.6 185.832 153.037 186.211 153.545 186.469C154.053 186.719 154.631 186.844 155.279 186.844C155.935 186.844 156.518 186.719 157.025 186.469C157.533 186.211 157.963 185.832 158.314 185.332C158.666 184.824 158.932 184.203 159.111 183.469C159.299 182.734 159.393 181.891 159.393 180.938ZM169.115 171.938H175.15C176.447 171.938 177.553 172.133 178.467 172.523C179.381 172.914 180.08 173.492 180.565 174.258C181.057 175.016 181.303 175.953 181.303 177.07C181.303 177.922 181.147 178.672 180.834 179.32C180.522 179.969 180.08 180.516 179.51 180.961C178.94 181.398 178.26 181.738 177.471 181.98L176.58 182.414H171.154L171.131 180.082H175.197C175.9 180.082 176.486 179.957 176.955 179.707C177.424 179.457 177.775 179.117 178.01 178.688C178.252 178.25 178.373 177.758 178.373 177.211C178.373 176.617 178.256 176.102 178.022 175.664C177.795 175.219 177.443 174.879 176.967 174.645C176.49 174.402 175.885 174.281 175.15 174.281H172.057V189H169.115V171.938ZM178.854 189L174.846 181.336L177.928 181.324L181.994 188.848V189H178.854ZM199.24 186.668V189H190.182V186.668H199.24ZM191.014 171.938V189H188.073V171.938H191.014ZM198.057 179.062V181.359H190.182V179.062H198.057ZM199.182 171.938V174.281H190.182V171.938H199.182ZM205.319 187.594C205.319 187.156 205.467 186.789 205.764 186.492C206.061 186.188 206.463 186.035 206.971 186.035C207.487 186.035 207.889 186.188 208.178 186.492C208.475 186.789 208.623 187.156 208.623 187.594C208.623 188.031 208.475 188.398 208.178 188.695C207.889 188.992 207.487 189.141 206.971 189.141C206.463 189.141 206.061 188.992 205.764 188.695C205.467 188.398 205.319 188.031 205.319 187.594ZM232.217 181.289H227.87L227.846 179.145H231.643C232.284 179.145 232.827 179.051 233.272 178.863C233.725 178.668 234.069 178.391 234.303 178.031C234.538 177.664 234.655 177.223 234.655 176.707C234.655 176.137 234.546 175.672 234.327 175.312C234.108 174.953 233.772 174.691 233.319 174.527C232.874 174.363 232.303 174.281 231.608 174.281H228.76V189H225.819V171.938H231.608C232.546 171.938 233.382 172.027 234.116 172.207C234.858 172.387 235.487 172.668 236.003 173.051C236.526 173.426 236.921 173.902 237.186 174.48C237.46 175.059 237.596 175.746 237.596 176.543C237.596 177.246 237.428 177.891 237.092 178.477C236.757 179.055 236.26 179.527 235.604 179.895C234.948 180.262 234.132 180.48 233.155 180.551L232.217 181.289ZM232.089 189H226.944L228.268 186.668H232.089C232.753 186.668 233.307 186.559 233.753 186.34C234.198 186.113 234.53 185.805 234.749 185.414C234.975 185.016 235.089 184.551 235.089 184.02C235.089 183.465 234.991 182.984 234.796 182.578C234.6 182.164 234.292 181.848 233.87 181.629C233.448 181.402 232.897 181.289 232.217 181.289H228.913L228.936 179.145H233.237L233.905 179.953C234.842 179.984 235.612 180.191 236.214 180.574C236.823 180.957 237.276 181.453 237.573 182.062C237.87 182.672 238.018 183.328 238.018 184.031C238.018 185.117 237.78 186.027 237.303 186.762C236.835 187.496 236.159 188.055 235.276 188.438C234.393 188.812 233.331 189 232.089 189ZM255.991 186.668V189H246.932V186.668H255.991ZM247.765 171.938V189H244.823V171.938H247.765ZM254.807 179.062V181.359H246.932V179.062H254.807ZM255.932 171.938V174.281H246.932V171.938H255.932ZM273.245 171.938H275.87L280.804 185.098L285.726 171.938H288.351L281.835 189H279.749L273.245 171.938ZM272.05 171.938H274.546L274.98 183.328V189H272.05V171.938ZM287.05 171.938H289.558V189H286.616V183.328L287.05 171.938ZM310.495 180V180.938C310.495 182.227 310.327 183.383 309.992 184.406C309.656 185.43 309.175 186.301 308.55 187.02C307.933 187.738 307.191 188.289 306.324 188.672C305.456 189.047 304.495 189.234 303.441 189.234C302.394 189.234 301.437 189.047 300.57 188.672C299.71 188.289 298.964 187.738 298.331 187.02C297.699 186.301 297.206 185.43 296.855 184.406C296.511 183.383 296.339 182.227 296.339 180.938V180C296.339 178.711 296.511 177.559 296.855 176.543C297.199 175.52 297.683 174.648 298.308 173.93C298.941 173.203 299.687 172.652 300.546 172.277C301.413 171.895 302.37 171.703 303.417 171.703C304.472 171.703 305.433 171.895 306.3 172.277C307.167 172.652 307.913 173.203 308.538 173.93C309.163 174.648 309.644 175.52 309.98 176.543C310.324 177.559 310.495 178.711 310.495 180ZM307.554 180.938V179.977C307.554 179.023 307.46 178.184 307.273 177.457C307.093 176.723 306.824 176.109 306.464 175.617C306.113 175.117 305.679 174.742 305.163 174.492C304.648 174.234 304.066 174.105 303.417 174.105C302.769 174.105 302.191 174.234 301.683 174.492C301.175 174.742 300.742 175.117 300.382 175.617C300.031 176.109 299.761 176.723 299.574 177.457C299.386 178.184 299.292 179.023 299.292 179.977V180.938C299.292 181.891 299.386 182.734 299.574 183.469C299.761 184.203 300.035 184.824 300.394 185.332C300.761 185.832 301.199 186.211 301.706 186.469C302.214 186.719 302.792 186.844 303.441 186.844C304.097 186.844 304.679 186.719 305.187 186.469C305.695 186.211 306.124 185.832 306.476 185.332C306.827 184.824 307.093 184.203 307.273 183.469C307.46 182.734 307.554 181.891 307.554 180.938ZM317.277 171.938H323.312C324.609 171.938 325.714 172.133 326.628 172.523C327.542 172.914 328.242 173.492 328.726 174.258C329.218 175.016 329.464 175.953 329.464 177.07C329.464 177.922 329.308 178.672 328.996 179.32C328.683 179.969 328.242 180.516 327.671 180.961C327.101 181.398 326.421 181.738 325.632 181.98L324.742 182.414H319.316L319.292 180.082H323.359C324.062 180.082 324.648 179.957 325.117 179.707C325.585 179.457 325.937 179.117 326.171 178.688C326.414 178.25 326.535 177.758 326.535 177.211C326.535 176.617 326.417 176.102 326.183 175.664C325.957 175.219 325.605 174.879 325.128 174.645C324.652 174.402 324.046 174.281 323.312 174.281H320.218V189H317.277V171.938ZM327.015 189L323.007 181.336L326.089 181.324L330.156 188.848V189H327.015ZM347.402 186.668V189H338.343V186.668H347.402ZM339.175 171.938V189H336.234V171.938H339.175ZM346.218 179.062V181.359H338.343V179.062H346.218ZM347.343 171.938V174.281H338.343V171.938H347.343ZM367.738 185.168L371.137 171.938H372.918L372.719 175.348L369.086 189H367.234L367.738 185.168ZM365.195 171.938L367.949 185.062L368.195 189H366.227L362.277 171.938H365.195ZM376.773 185.027L379.492 171.938H382.422L378.473 189H376.504L376.773 185.027ZM373.609 171.938L376.973 185.203L377.465 189H375.613L372.039 175.348L371.852 171.938H373.609ZM391.582 171.938V189H388.641V171.938H391.582ZM405.746 171.938V189H402.828V171.938H405.746ZM411.102 171.938V174.281H397.52V171.938H411.102ZM428.465 179.062V181.395H419.407V179.062H428.465ZM420.133 171.938V189H417.192V171.938H420.133ZM430.727 171.938V189H427.797V171.938H430.727ZM457.966 183.445H460.895C460.802 184.562 460.489 185.559 459.958 186.434C459.427 187.301 458.68 187.984 457.72 188.484C456.759 188.984 455.591 189.234 454.216 189.234C453.161 189.234 452.212 189.047 451.368 188.672C450.524 188.289 449.802 187.75 449.2 187.055C448.598 186.352 448.138 185.504 447.817 184.512C447.505 183.52 447.348 182.41 447.348 181.184V179.766C447.348 178.539 447.509 177.43 447.829 176.438C448.157 175.445 448.626 174.598 449.235 173.895C449.845 173.184 450.575 172.641 451.427 172.266C452.286 171.891 453.251 171.703 454.321 171.703C455.68 171.703 456.829 171.953 457.766 172.453C458.704 172.953 459.43 173.645 459.946 174.527C460.47 175.41 460.79 176.422 460.907 177.562H457.977C457.899 176.828 457.727 176.199 457.462 175.676C457.204 175.152 456.821 174.754 456.313 174.48C455.805 174.199 455.141 174.059 454.321 174.059C453.649 174.059 453.063 174.184 452.563 174.434C452.063 174.684 451.645 175.051 451.309 175.535C450.973 176.02 450.72 176.617 450.548 177.328C450.384 178.031 450.302 178.836 450.302 179.742V181.184C450.302 182.043 450.376 182.824 450.524 183.527C450.68 184.223 450.915 184.82 451.227 185.32C451.548 185.82 451.954 186.207 452.446 186.48C452.938 186.754 453.528 186.891 454.216 186.891C455.052 186.891 455.727 186.758 456.243 186.492C456.766 186.227 457.161 185.84 457.427 185.332C457.7 184.816 457.88 184.188 457.966 183.445ZM467.407 171.938H473.442C474.739 171.938 475.845 172.133 476.759 172.523C477.673 172.914 478.372 173.492 478.856 174.258C479.349 175.016 479.595 175.953 479.595 177.07C479.595 177.922 479.438 178.672 479.126 179.32C478.813 179.969 478.372 180.516 477.802 180.961C477.231 181.398 476.552 181.738 475.763 181.98L474.872 182.414H469.446L469.423 180.082H473.489C474.192 180.082 474.778 179.957 475.247 179.707C475.716 179.457 476.067 179.117 476.302 178.688C476.544 178.25 476.665 177.758 476.665 177.211C476.665 176.617 476.548 176.102 476.313 175.664C476.087 175.219 475.735 174.879 475.259 174.645C474.782 174.402 474.177 174.281 473.442 174.281H470.349V189H467.407V171.938ZM477.145 189L473.138 181.336L476.22 181.324L480.286 188.848V189H477.145ZM497.532 186.668V189H488.474V186.668H497.532ZM489.306 171.938V189H486.364V171.938H489.306ZM496.349 179.062V181.359H488.474V179.062H496.349ZM497.474 171.938V174.281H488.474V171.938H497.474ZM510.419 174.211L505.322 189H502.24L508.661 171.938H510.63L510.419 174.211ZM514.685 189L509.575 174.211L509.353 171.938H511.333L517.779 189H514.685ZM514.439 182.672V185.004H505.158V182.672H514.439ZM529.072 171.938V189H526.154V171.938H529.072ZM534.427 171.938V174.281H520.845V171.938H534.427ZM543.658 171.938V189H540.716V171.938H543.658ZM557.002 185.883L561.49 171.938H564.736L558.619 189H556.427L557.002 185.883ZM552.853 171.938L557.306 185.883L557.916 189H555.713L549.619 171.938H552.853ZM581.654 186.668V189H572.596V186.668H581.654ZM573.428 171.938V189H570.486V171.938H573.428ZM580.471 179.062V181.359H572.596V179.062H580.471ZM581.596 171.938V174.281H572.596V171.938H581.596ZM602.67 189H599.026L599.049 186.668H602.67C603.725 186.668 604.608 186.438 605.319 185.977C606.037 185.516 606.576 184.855 606.936 183.996C607.303 183.137 607.487 182.113 607.487 180.926V180C607.487 179.078 607.381 178.262 607.17 177.551C606.967 176.84 606.662 176.242 606.256 175.758C605.858 175.273 605.365 174.906 604.78 174.656C604.201 174.406 603.533 174.281 602.776 174.281H598.955V171.938H602.776C603.908 171.938 604.944 172.129 605.881 172.512C606.819 172.887 607.627 173.43 608.307 174.141C608.994 174.852 609.522 175.703 609.889 176.695C610.256 177.688 610.44 178.797 610.44 180.023V180.926C610.44 182.152 610.256 183.262 609.889 184.254C609.522 185.246 608.994 186.098 608.307 186.809C607.619 187.512 606.799 188.055 605.846 188.438C604.901 188.812 603.842 189 602.67 189ZM600.655 171.938V189H597.713V171.938H600.655ZM630.838 180V180.938C630.838 182.227 630.67 183.383 630.334 184.406C629.998 185.43 629.518 186.301 628.893 187.02C628.276 187.738 627.534 188.289 626.666 188.672C625.799 189.047 624.838 189.234 623.784 189.234C622.737 189.234 621.78 189.047 620.912 188.672C620.053 188.289 619.307 187.738 618.674 187.02C618.041 186.301 617.549 185.43 617.198 184.406C616.854 183.383 616.682 182.227 616.682 180.938V180C616.682 178.711 616.854 177.559 617.198 176.543C617.541 175.52 618.026 174.648 618.651 173.93C619.284 173.203 620.03 172.652 620.889 172.277C621.756 171.895 622.713 171.703 623.76 171.703C624.815 171.703 625.776 171.895 626.643 172.277C627.51 172.652 628.256 173.203 628.881 173.93C629.506 174.648 629.987 175.52 630.323 176.543C630.666 177.559 630.838 178.711 630.838 180ZM627.897 180.938V179.977C627.897 179.023 627.803 178.184 627.616 177.457C627.436 176.723 627.166 176.109 626.807 175.617C626.455 175.117 626.022 174.742 625.506 174.492C624.991 174.234 624.409 174.105 623.76 174.105C623.112 174.105 622.534 174.234 622.026 174.492C621.518 174.742 621.084 175.117 620.725 175.617C620.373 176.109 620.104 176.723 619.916 177.457C619.729 178.184 619.635 179.023 619.635 179.977V180.938C619.635 181.891 619.729 182.734 619.916 183.469C620.104 184.203 620.377 184.824 620.737 185.332C621.104 185.832 621.541 186.211 622.049 186.469C622.557 186.719 623.135 186.844 623.784 186.844C624.44 186.844 625.022 186.719 625.53 186.469C626.037 186.211 626.467 185.832 626.819 185.332C627.17 184.824 627.436 184.203 627.616 183.469C627.803 182.734 627.897 181.891 627.897 180.938ZM647.698 183.445H650.627C650.534 184.562 650.221 185.559 649.69 186.434C649.159 187.301 648.413 187.984 647.452 188.484C646.491 188.984 645.323 189.234 643.948 189.234C642.893 189.234 641.944 189.047 641.1 188.672C640.256 188.289 639.534 187.75 638.932 187.055C638.331 186.352 637.87 185.504 637.549 184.512C637.237 183.52 637.081 182.41 637.081 181.184V179.766C637.081 178.539 637.241 177.43 637.561 176.438C637.889 175.445 638.358 174.598 638.967 173.895C639.577 173.184 640.307 172.641 641.159 172.266C642.018 171.891 642.983 171.703 644.053 171.703C645.413 171.703 646.561 171.953 647.499 172.453C648.436 172.953 649.163 173.645 649.678 174.527C650.202 175.41 650.522 176.422 650.639 177.562H647.709C647.631 176.828 647.459 176.199 647.194 175.676C646.936 175.152 646.553 174.754 646.045 174.48C645.538 174.199 644.874 174.059 644.053 174.059C643.381 174.059 642.795 174.184 642.295 174.434C641.795 174.684 641.377 175.051 641.042 175.535C640.706 176.02 640.452 176.617 640.28 177.328C640.116 178.031 640.034 178.836 640.034 179.742V181.184C640.034 182.043 640.108 182.824 640.256 183.527C640.413 184.223 640.647 184.82 640.959 185.32C641.28 185.82 641.686 186.207 642.178 186.48C642.67 186.754 643.26 186.891 643.948 186.891C644.784 186.891 645.459 186.758 645.975 186.492C646.499 186.227 646.893 185.84 647.159 185.332C647.432 184.816 647.612 184.188 647.698 183.445ZM660.081 171.938V189H657.139V171.938H660.081ZM670.335 171.938L663.421 180.152L659.483 184.324L658.968 181.406L661.78 177.938L666.749 171.938H670.335ZM667.171 189L661.557 180.914L663.585 178.91L670.663 189H667.171Z" fill="#1B1B1B"/>
<defs>
<clipPath id="clip0_3864_577">
<rect width="742.768" height="113.032" fill="white" transform="translate(0 0.984375)"/>
</clipPath>
</defs>
</svg>
